<svg xmlns="http://www.w3.org/2000/svg" width="25" height="23">
  <path fill-rule="evenodd" fill="#FFF" d="M22.581 13.964H2.419C1.089 13.964 0 12.855 0 11.499c0-1.355 1.089-2.464 2.419-2.464h20.162c1.33 0 2.419 1.109 2.419 2.464 0 1.356-1.089 2.465-2.419 2.465zm0-9.036H2.419C1.089 4.928 0 3.819 0 2.464S1.089 0 2.419 0h20.162C23.911 0 25 1.109 25 2.464s-1.089 2.464-2.419 2.464zM2.419 18.071h20.162c1.33 0 2.419 1.109 2.419 2.464 0 1.356-1.089 2.464-2.419 2.464H2.419C1.089 22.999 0 21.891 0 20.535c0-1.355 1.089-2.464 2.419-2.464z"/>
</svg>