<svg 
 xmlns="http://www.w3.org/2000/svg"
 xmlns:xlink="http://www.w3.org/1999/xlink"
 width="25px" height="23px">
<path fill-rule="evenodd"  fill="rgb(255, 255, 255)"
 d="M22.581,13.964 L2.419,13.964 C1.089,13.964 -0.000,12.855 -0.000,11.499 C-0.000,10.144 1.089,9.035 2.419,9.035 L22.581,9.035 C23.911,9.035 25.000,10.144 25.000,11.499 C25.000,12.855 23.911,13.964 22.581,13.964 ZM22.581,4.928 L2.419,4.928 C1.089,4.928 -0.000,3.819 -0.000,2.464 C-0.000,1.109 1.089,-0.000 2.419,-0.000 L22.581,-0.000 C23.911,-0.000 25.000,1.109 25.000,2.464 C25.000,3.819 23.911,4.928 22.581,4.928 ZM2.419,18.071 L22.581,18.071 C23.911,18.071 25.000,19.180 25.000,20.535 C25.000,21.891 23.911,22.999 22.581,22.999 L2.419,22.999 C1.089,22.999 -0.000,21.891 -0.000,20.535 C-0.000,19.180 1.089,18.071 2.419,18.071 Z"/>
</svg>