<svg 
 xmlns="http://www.w3.org/2000/svg"
 xmlns:xlink="http://www.w3.org/1999/xlink"
 width="28px" height="22px">
<path fill-rule="evenodd"  fill="rgb(255, 255, 255)"
 d="M14.000,8.249 C11.680,8.249 9.800,10.097 9.800,12.374 C9.800,14.653 11.680,16.499 14.000,16.499 C16.319,16.499 18.200,14.653 18.200,12.374 C18.200,10.097 16.319,8.249 14.000,8.249 ZM25.200,4.125 L21.840,4.125 C21.378,4.125 20.880,3.772 20.734,3.342 L19.866,0.782 C19.719,0.352 19.222,-0.001 18.760,-0.001 L9.240,-0.001 C8.778,-0.001 8.280,0.352 8.134,0.782 L7.266,3.342 C7.119,3.772 6.622,4.125 6.160,4.125 L2.800,4.125 C1.260,4.125 -0.000,5.362 -0.000,6.874 L-0.000,19.250 C-0.000,20.762 1.260,21.999 2.800,21.999 L25.200,21.999 C26.740,21.999 28.000,20.762 28.000,19.250 L28.000,6.874 C28.000,5.362 26.740,4.125 25.200,4.125 ZM14.000,19.250 C10.134,19.250 7.000,16.171 7.000,12.374 C7.000,8.578 10.134,5.499 14.000,5.499 C17.865,5.499 21.000,8.578 21.000,12.374 C21.000,16.171 17.865,19.250 14.000,19.250 ZM24.220,8.797 C23.679,8.797 23.240,8.367 23.240,7.835 C23.240,7.303 23.679,6.872 24.220,6.872 C24.761,6.872 25.200,7.303 25.200,7.835 C25.200,8.367 24.761,8.797 24.220,8.797 Z"/>
</svg>