<svg 
 xmlns="http://www.w3.org/2000/svg"
 xmlns:xlink="http://www.w3.org/1999/xlink"
 width="29px" height="27px">
<path fill-rule="evenodd"  fill="rgb(255, 255, 255)"
 d="M27.029,21.143 L23.765,21.143 L23.765,19.671 L25.674,19.671 L25.674,7.327 L23.765,7.327 L23.765,5.855 L27.029,5.855 C28.115,5.855 28.996,6.732 28.997,7.819 L28.997,19.179 C28.997,20.263 28.115,21.143 27.029,21.143 ZM27.572,10.866 L26.999,10.866 L26.999,16.132 L27.572,16.132 L27.572,10.866 ZM27.262,17.380 C26.982,17.380 26.756,17.605 26.756,17.883 C26.756,18.161 26.982,18.385 27.262,18.385 C27.538,18.385 27.765,18.161 27.765,17.883 C27.765,17.605 27.538,17.380 27.262,17.380 ZM25.968,4.565 L26.439,4.570 L26.439,2.237 L24.078,2.237 L24.078,1.710 L26.984,1.710 L26.984,4.576 L27.465,4.580 L26.700,5.344 L25.968,4.565 ZM20.813,26.999 L9.444,26.999 C8.356,26.999 7.478,26.116 7.478,25.033 L7.478,21.143 L7.478,19.671 L7.478,7.327 L7.478,5.855 L7.478,1.968 C7.478,0.881 8.356,0.000 9.443,0.000 L20.813,0.000 C21.901,0.000 22.781,0.881 22.782,1.968 L22.782,5.855 L22.782,7.327 L22.782,19.671 L22.782,21.143 L22.782,25.033 C22.782,26.118 21.901,26.999 20.813,26.999 ZM12.729,24.902 L17.530,24.902 L17.530,23.426 L12.729,23.426 L12.729,24.902 ZM17.765,1.422 L12.492,1.422 L12.492,1.996 L17.765,1.996 L17.765,1.422 ZM19.517,1.231 C19.239,1.231 19.014,1.456 19.014,1.733 C19.014,2.011 19.239,2.236 19.517,2.236 C19.795,2.236 20.020,2.011 20.020,1.733 C20.020,1.456 19.795,1.231 19.517,1.231 ZM21.308,21.143 L21.308,19.671 L21.308,7.327 L21.308,5.855 L21.308,3.319 L8.952,3.319 L8.952,5.855 L8.952,7.327 L8.952,19.671 L8.952,21.143 L8.952,21.875 L21.308,21.875 L21.308,21.143 ZM3.729,23.021 L3.248,23.015 L4.013,22.253 L4.746,23.032 L4.273,23.027 L4.273,25.360 L6.631,25.360 L6.631,25.887 L3.729,25.887 L3.729,23.021 ZM0.003,19.179 L0.003,7.819 C0.003,6.732 0.884,5.855 1.969,5.855 L6.493,5.855 L6.493,7.327 L5.131,7.327 L5.131,19.671 L6.493,19.671 L6.493,19.671 L6.493,21.143 L1.969,21.143 C0.884,21.143 0.003,20.263 0.003,19.179 ZM2.100,15.896 L3.577,15.896 L3.577,11.101 L2.100,11.101 L2.100,15.896 Z"/>
</svg>