<svg 
 xmlns="http://www.w3.org/2000/svg"
 xmlns:xlink="http://www.w3.org/1999/xlink"
 width="28px" height="23px">
<path fill-rule="evenodd"  fill="rgb(255, 255, 255)"
 d="M27.572,13.610 L24.509,13.714 C24.503,13.714 24.499,13.714 24.493,13.714 C24.259,13.714 24.065,13.534 24.057,13.304 C24.049,13.069 24.238,12.873 24.478,12.865 L27.542,12.761 C27.782,12.740 27.985,12.936 27.993,13.171 C28.001,13.406 27.813,13.602 27.572,13.610 ZM23.661,9.613 C23.601,9.641 23.536,9.655 23.474,9.654 C23.311,9.654 23.154,9.565 23.079,9.413 C22.975,9.201 23.067,8.947 23.285,8.846 L26.051,7.558 C26.268,7.458 26.528,7.547 26.632,7.759 C26.736,7.971 26.645,8.225 26.427,8.326 L23.661,9.613 ZM21.731,6.707 C21.647,6.790 21.535,6.832 21.423,6.832 C21.311,6.832 21.199,6.790 21.114,6.707 C20.944,6.541 20.944,6.272 21.114,6.106 L23.282,3.994 C23.453,3.828 23.729,3.828 23.900,3.994 C24.070,4.161 24.070,4.429 23.900,4.596 L21.731,6.707 ZM18.805,4.535 C18.731,4.690 18.573,4.782 18.409,4.782 C18.347,4.782 18.285,4.769 18.225,4.742 C18.006,4.644 17.911,4.391 18.012,4.178 L19.301,1.469 C19.402,1.256 19.661,1.163 19.880,1.262 C20.099,1.361 20.194,1.613 20.093,1.826 L18.805,4.535 ZM13.994,3.835 C13.753,3.835 13.557,3.645 13.557,3.410 L13.557,0.424 C13.557,0.189 13.753,-0.001 13.994,-0.001 C14.235,-0.001 14.431,0.189 14.431,0.424 L14.431,3.410 C14.431,3.645 14.235,3.835 13.994,3.835 ZM10.155,4.542 C9.981,4.542 9.816,4.440 9.749,4.272 L8.629,1.494 C8.540,1.275 8.651,1.028 8.875,0.943 C9.099,0.857 9.353,0.965 9.441,1.183 L10.561,3.961 C10.650,4.180 10.539,4.427 10.314,4.512 C10.262,4.533 10.208,4.542 10.155,4.542 ZM13.993,6.516 C17.121,6.516 19.665,8.993 19.665,12.038 C19.665,14.170 17.245,18.802 17.142,18.998 C17.130,19.022 17.112,19.042 17.095,19.062 L17.095,21.193 C17.095,21.428 16.900,21.618 16.658,21.618 L11.329,21.618 C11.088,21.618 10.892,21.428 10.892,21.193 L10.892,18.805 C10.892,18.787 10.900,18.771 10.902,18.754 C10.346,17.718 8.322,13.826 8.322,12.038 C8.322,8.993 10.866,6.516 13.993,6.516 ZM14.829,18.379 C14.826,18.361 14.818,18.344 14.818,18.325 L14.818,13.714 L13.169,13.714 L13.169,13.714 L13.169,18.325 C13.169,18.344 13.160,18.361 13.158,18.379 L14.829,18.379 ZM11.686,18.379 L12.307,18.379 C12.305,18.361 12.296,18.344 12.296,18.325 L12.296,13.714 L11.714,13.714 C11.472,13.714 11.277,13.524 11.277,13.288 C11.277,13.054 11.472,12.863 11.714,12.863 L12.296,12.863 L12.296,12.651 C12.296,12.416 12.492,12.226 12.733,12.226 C12.974,12.226 13.169,12.416 13.169,12.651 L13.169,12.863 L14.818,12.863 L14.818,12.651 C14.818,12.416 15.013,12.226 15.254,12.226 C15.495,12.226 15.691,12.416 15.691,12.651 L15.691,12.863 L16.139,12.863 C16.380,12.863 16.575,13.054 16.575,13.288 C16.575,13.524 16.380,13.714 16.139,13.714 L15.691,13.714 L15.691,18.325 C15.691,18.344 15.682,18.361 15.680,18.379 L16.484,18.379 C16.972,17.417 18.792,13.715 18.792,12.038 C18.792,9.462 16.639,7.366 13.994,7.366 C11.348,7.366 9.196,9.462 9.196,12.038 C9.196,13.467 10.891,16.905 11.686,18.379 ZM6.821,6.741 C6.808,6.757 6.802,6.776 6.787,6.791 C6.702,6.876 6.588,6.920 6.475,6.920 C6.365,6.920 6.255,6.879 6.170,6.798 L3.976,4.714 C3.803,4.550 3.800,4.281 3.968,4.113 C3.989,4.092 4.016,4.081 4.040,4.066 C4.056,4.041 4.067,4.016 4.089,3.994 C4.259,3.828 4.536,3.828 4.706,3.994 L6.873,6.106 C7.044,6.272 7.044,6.541 6.873,6.707 C6.857,6.722 6.838,6.728 6.821,6.741 ZM4.500,10.375 C4.436,10.550 4.268,10.659 4.088,10.659 C4.040,10.659 3.990,10.651 3.942,10.634 L1.051,9.639 C0.824,9.561 0.705,9.319 0.785,9.097 C0.865,8.876 1.115,8.760 1.342,8.838 L4.233,9.833 C4.460,9.911 4.580,10.154 4.500,10.375 ZM3.930,13.979 C3.938,14.213 3.750,14.411 3.509,14.418 L0.445,14.522 C0.440,14.522 0.435,14.522 0.430,14.522 C0.196,14.522 0.002,14.341 -0.006,14.111 C-0.015,13.877 0.174,13.680 0.415,13.672 L3.479,13.568 C3.713,13.545 3.921,13.744 3.930,13.979 ZM4.326,17.669 C4.543,17.568 4.804,17.658 4.909,17.869 C5.012,18.081 4.920,18.335 4.703,18.436 L1.937,19.724 C1.876,19.753 1.812,19.765 1.749,19.765 C1.586,19.765 1.430,19.677 1.355,19.524 C1.251,19.313 1.343,19.058 1.560,18.957 L4.326,17.669 ZM12.733,22.150 L15.254,22.150 C15.495,22.150 15.691,22.340 15.691,22.575 C15.691,22.810 15.495,23.000 15.254,23.000 L12.733,23.000 C12.492,23.000 12.296,22.810 12.296,22.575 C12.296,22.340 12.492,22.150 12.733,22.150 ZM24.045,16.648 L26.936,17.642 C27.163,17.720 27.283,17.963 27.203,18.185 C27.139,18.359 26.971,18.468 26.791,18.468 C26.743,18.468 26.693,18.460 26.646,18.444 L23.755,17.450 C23.527,17.372 23.408,17.129 23.488,16.908 C23.568,16.687 23.818,16.572 24.045,16.648 Z"/>
</svg>