<svg 
 xmlns="http://www.w3.org/2000/svg"
 xmlns:xlink="http://www.w3.org/1999/xlink"
 width="28px" height="28px">
<path fill-rule="evenodd"  fill="rgb(255, 255, 255)"
 d="M20.125,26.250 L18.375,26.250 C17.409,26.250 16.625,25.465 16.625,24.499 L16.625,21.874 L11.375,21.874 L11.375,24.499 C11.375,25.465 10.591,26.250 9.625,26.250 L7.875,26.250 C7.391,26.250 7.000,26.642 7.000,27.125 C7.000,27.608 7.391,28.000 7.875,28.000 L20.125,28.000 C20.608,28.000 21.000,27.608 21.000,27.125 C21.000,26.642 20.608,26.250 20.125,26.250 ZM26.469,-0.001 L1.531,-0.001 C0.686,-0.001 -0.000,0.734 -0.000,1.640 L-0.000,18.484 C-0.000,19.390 0.686,20.124 1.531,20.124 L26.469,20.124 C27.314,20.124 28.000,19.390 28.000,18.484 L28.000,1.640 C28.000,0.734 27.314,-0.001 26.469,-0.001 ZM26.250,18.374 L1.750,18.374 L1.750,1.749 L26.250,1.749 L26.250,18.374 Z"/>
</svg>